
<svg width="26px" height="26px" viewBox="0 0 26 26" version="1.1" xmlns="http://www.w3.org/2000/svg" xmlns:xlink="http://www.w3.org/1999/xlink">
    <g id="Личный-кабинет" stroke="none" stroke-width="1" fill="none" fill-rule="evenodd">
        <g id="NSI-1" transform="translate(-159.000000, -15.000000)" fill="#F5F5F5" stroke="#F5F5F5" stroke-width="0.5">
            <g id="Header">
                <g id="Logo" transform="translate(160.000000, 16.000000)">
                    <path d="M22.5109489,16.8175182 C22.1800292,16.8175182 21.8785401,16.6936642 21.6471241,16.4913285 L22.5727883,15.5656642 C22.5885547,15.5498978 22.5985401,15.528 22.5985401,15.5036496 L22.5985401,14.1941606 C23.2821022,14.2395328 23.8248175,14.8087007 23.8248175,15.5036496 C23.8248175,16.2282044 23.2355036,16.8175182 22.5109489,16.8175182 Z M16.8175182,22.5109489 C16.8175182,23.2355036 16.2282044,23.8248175 15.5036496,23.8248175 C14.8087007,23.8248175 14.2395328,23.2821022 14.1941606,22.5985401 L15.5036496,22.5985401 C15.528,22.5985401 15.5498978,22.5885547 15.5656642,22.5727883 L16.4913285,21.6471241 C16.6936642,21.8785401 16.8175182,22.1800292 16.8175182,22.5109489 Z M1.48905109,23.8248175 C0.76449635,23.8248175 0.175182482,23.2355036 0.175182482,22.5109489 C0.175182482,21.816 0.71789781,21.2468321 1.40145985,21.2014599 L1.40145985,22.5109489 C1.40145985,22.5592993 1.44070073,22.5985401 1.48905109,22.5985401 L2.79854015,22.5985401 C2.75316788,23.2821022 2.184,23.8248175 1.48905109,23.8248175 Z M0.175182482,8.49635036 C0.175182482,7.77179562 0.76449635,7.18248175 1.48905109,7.18248175 C1.8199708,7.18248175 2.12145985,7.30633577 2.35287591,7.50867153 L1.42721168,8.43433577 C1.41144526,8.45010219 1.40145985,8.472 1.40145985,8.49635036 L1.40145985,9.80583942 C0.71789781,9.76046715 0.175182482,9.19129927 0.175182482,8.49635036 Z M7.18248175,1.48905109 C7.18248175,0.76449635 7.77179562,0.175182482 8.49635036,0.175182482 C9.19129927,0.175182482 9.76046715,0.71789781 9.80583942,1.40145985 L8.49635036,1.40145985 C8.472,1.40145985 8.45010219,1.41144526 8.43433577,1.42721168 L7.50867153,2.35287591 C7.30633577,2.12145985 7.18248175,1.8199708 7.18248175,1.48905109 Z M22.5109489,0.175182482 C23.2355036,0.175182482 23.8248175,0.76449635 23.8248175,1.48905109 C23.8248175,2.184 23.2821022,2.75316788 22.5985401,2.79854015 L22.5985401,1.48905109 C22.5985401,1.44070073 22.5592993,1.40145985 22.5109489,1.40145985 L21.2014599,1.40145985 C21.2468321,0.71789781 21.816,0.175182482 22.5109489,0.175182482 Z M15.5912409,21.0262774 L15.5912409,15.5912409 L21.0262774,15.5912409 C21.0465985,15.9358248 21.1837664,16.2485255 21.3995912,16.4911533 L16.4911533,21.3995912 C16.2485255,21.1837664 15.9358248,21.0465985 15.5912409,21.0262774 Z M15.5912409,21.2014599 C15.8874745,21.2212555 16.1569051,21.3389781 16.3674745,21.5232701 L15.5912409,22.2995036 L15.5912409,21.2014599 Z M15.4160584,21.2014599 L15.4160584,22.4233577 L14.1941606,22.4233577 C14.2376058,21.7688759 14.7615766,21.2449051 15.4160584,21.2014599 Z M2.60040876,21.5234453 L7.50884672,16.6150073 C7.7719708,16.8492263 8.11725547,16.9927007 8.49635036,16.9927007 C9.28782482,16.9927007 9.93529927,16.3713285 9.9810219,15.5912409 L15.4160584,15.5912409 L15.4160584,21.0262774 C14.6650511,21.0702482 14.0629489,21.6723504 14.0189781,22.4233577 L2.97372263,22.4233577 C2.95340146,22.0787737 2.81623358,21.766073 2.60040876,21.5234453 Z M2.47672993,21.6471241 C2.6610219,21.8576934 2.77874453,22.1271241 2.79854015,22.4233577 L1.70049635,22.4233577 L2.47672993,21.6471241 Z M2.35287591,21.5232701 L1.57664234,22.2995036 L1.57664234,21.2014599 C1.87287591,21.2212555 2.14230657,21.3389781 2.35287591,21.5232701 Z M2.97372263,8.58394161 L8.40875912,8.58394161 L8.40875912,14.0189781 C7.62867153,14.0647007 7.00729927,14.7121752 7.00729927,15.5036496 C7.00729927,15.8827445 7.15077372,16.2280292 7.3849927,16.4911533 L2.47655474,21.3995912 C2.23392701,21.1837664 1.92122628,21.0465985 1.57664234,21.0262774 L1.57664234,9.9810219 C2.32764964,9.93705109 2.92975182,9.33494891 2.97372263,8.58394161 Z M2.79854015,8.58394161 C2.75509489,9.23842336 2.23112409,9.76239416 1.57664234,9.80583942 L1.57664234,8.58394161 L2.79854015,8.58394161 Z M8.40875912,2.97372263 L8.40875912,8.40875912 L2.97372263,8.40875912 C2.95340146,8.06417518 2.81623358,7.75147445 2.60040876,7.50884672 L7.50884672,2.60040876 C7.75147445,2.81623358 8.06417518,2.95340146 8.40875912,2.97372263 Z M8.40875912,2.79854015 C8.11252555,2.77874453 7.84309489,2.6610219 7.63252555,2.47672993 L8.40875912,1.70049635 L8.40875912,2.79854015 Z M8.58394161,2.79854015 L8.58394161,1.57664234 L9.80583942,1.57664234 C9.76239416,2.23112409 9.23842336,2.75509489 8.58394161,2.79854015 Z M21.3995912,2.47655474 L16.4911533,7.3849927 C16.2280292,7.15077372 15.8827445,7.00729927 15.5036496,7.00729927 C14.7121752,7.00729927 14.0647007,7.62867153 14.0189781,8.40875912 L8.58394161,8.40875912 L8.58394161,2.97372263 C9.33494891,2.92975182 9.93705109,2.32764964 9.9810219,1.57664234 L21.0262774,1.57664234 C21.0465985,1.92122628 21.1837664,2.23392701 21.3995912,2.47655474 Z M21.5232701,2.35287591 C21.3389781,2.14230657 21.2212555,1.87287591 21.2014599,1.57664234 L22.2995036,1.57664234 L21.5232701,2.35287591 Z M21.6471241,2.47672993 L22.4233577,1.70049635 L22.4233577,2.79854015 C22.1271241,2.77874453 21.8576934,2.6610219 21.6471241,2.47672993 Z M15.4160584,8.58394161 L15.4160584,9.80583942 C14.7615766,9.76239416 14.2376058,9.23842336 14.1941606,8.58394161 L15.4160584,8.58394161 Z M15.4673869,8.40875912 L14.1941606,8.40875912 C14.2395328,7.72519708 14.8087007,7.18248175 15.5036496,7.18248175 C15.8345693,7.18248175 16.1360584,7.30633577 16.3674745,7.50867153 L15.4673869,8.40875912 Z M15.5912409,8.53261314 L16.4913285,7.63252555 C16.6936642,7.86394161 16.8175182,8.16543066 16.8175182,8.49635036 C16.8175182,9.19129927 16.2748029,9.76046715 15.5912409,9.80583942 L15.5912409,8.53261314 Z M8.58394161,15.4160584 L8.58394161,14.1941606 C9.23842336,14.2376058 9.76239416,14.7615766 9.80583942,15.4160584 L8.58394161,15.4160584 Z M8.53261314,15.5912409 L9.80583942,15.5912409 C9.76046715,16.2748029 9.19129927,16.8175182 8.49635036,16.8175182 C8.16543066,16.8175182 7.86394161,16.6936642 7.63252555,16.4913285 L8.53261314,15.5912409 Z M8.40875912,15.4673869 L7.50867153,16.3674745 C7.30633577,16.1360584 7.18248175,15.8345693 7.18248175,15.5036496 C7.18248175,14.8087007 7.72519708,14.2395328 8.40875912,14.1941606 L8.40875912,15.4673869 Z M9.9810219,15.4160584 C9.93705109,14.6650511 9.33494891,14.0629489 8.58394161,14.0189781 L8.58394161,8.58394161 L14.0189781,8.58394161 C14.0629489,9.33494891 14.6650511,9.93705109 15.4160584,9.9810219 L15.4160584,15.4160584 L9.9810219,15.4160584 Z M22.4233577,14.1941606 L22.4233577,15.4160584 L21.2014599,15.4160584 C21.2449051,14.7615766 21.7688759,14.2376058 22.4233577,14.1941606 Z M21.0262774,15.4160584 L15.5912409,15.4160584 L15.5912409,9.9810219 C16.3713285,9.93529927 16.9927007,9.28782482 16.9927007,8.49635036 C16.9927007,8.11725547 16.8492263,7.7719708 16.6150073,7.50884672 L21.5234453,2.60040876 C21.766073,2.81623358 22.0787737,2.95340146 22.4233577,2.97372263 L22.4233577,14.0189781 C21.6723504,14.0629489 21.0702482,14.6650511 21.0262774,15.4160584 Z M2.47672993,7.63252555 C2.6610219,7.84309489 2.77874453,8.11252555 2.79854015,8.40875912 L1.70049635,8.40875912 L2.47672993,7.63252555 Z M21.5232701,16.3674745 C21.3389781,16.1569051 21.2212555,15.8874745 21.2014599,15.5912409 L22.2995036,15.5912409 L21.5232701,16.3674745 Z M22.5985401,14.0189781 L22.5985401,2.97372263 C23.3786277,2.928 24,2.28052555 24,1.48905109 C24,0.667970803 23.3320292,0 22.5109489,0 C21.7194745,0 21.072,0.621372263 21.0262774,1.40145985 L9.9810219,1.40145985 C9.93529927,0.621372263 9.28782482,0 8.49635036,0 C7.67527007,0 7.00729927,0.667970803 7.00729927,1.48905109 C7.00729927,1.86814599 7.15077372,2.21343066 7.3849927,2.47655474 L2.47655474,7.3849927 C2.21343066,7.15077372 1.86814599,7.00729927 1.48905109,7.00729927 C0.667970803,7.00729927 0,7.67527007 0,8.49635036 C0,9.28782482 0.621372263,9.93529927 1.40145985,9.9810219 L1.40145985,21.0262774 C0.621372263,21.072 0,21.7194745 0,22.5109489 C0,23.3320292 0.667970803,24 1.48905109,24 C2.28052555,24 2.928,23.3786277 2.97372263,22.5985401 L14.0189781,22.5985401 C14.0647007,23.3786277 14.7121752,24 15.5036496,24 C16.3247299,24 16.9927007,23.3320292 16.9927007,22.5109489 C16.9927007,22.131854 16.8492263,21.7865693 16.6150073,21.5234453 L21.5234453,16.6150073 C21.7865693,16.8492263 22.131854,16.9927007 22.5109489,16.9927007 C23.3320292,16.9927007 24,16.3247299 24,15.5036496 C24,14.7121752 23.3786277,14.0647007 22.5985401,14.0189781 Z" id="Fill-1"></path>
                </g>
            </g>
        </g>
    </g>
</svg>