<?xml version="1.0" encoding="UTF-8"?>
<svg width="36px" height="24px" viewBox="0 0 36 24" version="1.1" xmlns="http://www.w3.org/2000/svg" xmlns:xlink="http://www.w3.org/1999/xlink">
    <!-- Generator: Sketch 52.3 (67297) - http://www.bohemiancoding.com/sketch -->
    <title>Fill 1</title>
    <desc>Created with Sketch.</desc>
    <g id="Личный-кабинет" stroke="none" stroke-width="1" fill="none" fill-rule="evenodd">
        <g id="BIM-TIM-(vhod)" transform="translate(-702.000000, -292.000000)" fill="#0091EA">
            <g id="Form" transform="translate(560.000000, 264.000000)">
                <path d="M158.081154,46.1789195 L165.56197,46.1789195 L175.748861,51.2723649 L154.685281,51.2723649 L158.081154,46.1789195 Z M143.905368,46.1789195 L157.206537,46.1789195 L153.881972,51.1668579 L143.905368,46.1789195 Z M154.00567,29.0074596 L161.330045,39.9940214 L157.691869,45.4512844 L143.04312,45.4512844 L154.00567,29.0074596 Z M161.767353,39.3384222 L155.068745,29.289782 L165.116658,34.3141021 L161.767353,39.3384222 Z M164.96822,45.4512844 L158.566487,45.4512844 L161.767353,40.6496206 L164.96822,45.4512844 Z M165.89741,45.5327795 L162.204662,39.9940214 L165.647831,34.8285401 L176.227645,50.6982609 L165.89741,45.5327795 Z M177.592689,51.4346276 L165.950527,33.971386 C165.914873,33.9168134 165.863939,33.879704 165.807183,33.8549644 L165.810822,33.847688 L154.168661,28.0266075 L154.165022,28.0338839 C154.008581,27.9640309 153.80266,28.0018679 153.702974,28.1503055 L142.060813,45.613547 C141.986594,45.7248752 141.980046,45.8682193 142.042622,45.9868238 C142.079004,46.0544939 142.137215,46.1017902 142.204157,46.1345337 L142.201247,46.1403548 L153.843408,51.9614353 L153.846318,51.9556143 C153.895797,51.9803539 153.948187,52 154.00567,52 L177.289992,52 C177.424605,52 177.547575,51.9257812 177.610879,51.8079043 C177.674184,51.6892998 177.666907,51.5459557 177.592689,51.4346276 Z" id="Fill-1"></path>
            </g>
        </g>
    </g>
</svg>